<?xml version="1.0" encoding="UTF-8" standalone="no"?>
<!-- Created with Inkscape (http://www.inkscape.org/) -->

<svg
   xmlns:dc="http://purl.org/dc/elements/1.1/"
   xmlns:cc="http://creativecommons.org/ns#"
   xmlns:rdf="http://www.w3.org/1999/02/22-rdf-syntax-ns#"
   xmlns:svg="http://www.w3.org/2000/svg"
   xmlns="http://www.w3.org/2000/svg"
   xmlns:sodipodi="http://sodipodi.sourceforge.net/DTD/sodipodi-0.dtd"
   xmlns:inkscape="http://www.inkscape.org/namespaces/inkscape"
   width="100.34911"
   height="24.999987"
   viewBox="0 0 100.34911 24.999987"
   id="svg4658"
   version="1.1"
   inkscape:version="0.91 r13725"
   sodipodi:docname="Logo-ifrn-white.svg">
  <defs
     id="defs4660" />
  <sodipodi:namedview
     id="base"
     pagecolor="#ffffff"
     bordercolor="#666666"
     borderopacity="1.0"
     inkscape:pageopacity="0.0"
     inkscape:pageshadow="2"
     inkscape:zoom="2.8"
     inkscape:cx="20.295022"
     inkscape:cy="-6.6989129"
     inkscape:document-units="px"
     inkscape:current-layer="layer1"
     showgrid="false"
     units="px"
     width="1052.3622px"
     fit-margin-top="0"
     fit-margin-left="0"
     fit-margin-right="0"
     fit-margin-bottom="0"
     inkscape:window-width="1366"
     inkscape:window-height="705"
     inkscape:window-x="-8"
     inkscape:window-y="-8"
     inkscape:window-maximized="1" />
  <metadata
     id="metadata4663">
    <rdf:RDF>
      <cc:Work
         rdf:about="">
        <dc:format>image/svg+xml</dc:format>
        <dc:type
           rdf:resource="http://purl.org/dc/dcmitype/StillImage" />
        <dc:title></dc:title>
      </cc:Work>
    </rdf:RDF>
  </metadata>
  <g
     inkscape:label="Camada 1"
     inkscape:groupmode="layer"
     id="layer1"
     transform="translate(-598.86124,-592.11262)">
    <text
       style="font-size:5.86676121px;fill:#ffffff;fill-opacity:1"
       y="611.13348"
       x="619.90033"
       transform="scale(1.0008496,0.99915112)"
       id="text209">
      <tspan
         style="font-size:7.48080492px;font-family:OpenSans-Bold;fill:#ffffff;fill-opacity:1"
         x="619.90033"
         y="611.13348"
         font-size="15.3014"
         id="tspan211">INSTITUTO FEDERAL</tspan>
    </text>
    <text
       y="617.58057"
       x="620.03711"
       style="font-size:5.76912832px;font-family:OpenSans;fill:#ffffff;fill-opacity:1"
       transform="scale(1.0008496,0.99915112)"
       font-size="11.8003"
       id="text229">
      <tspan
         style="fill:#ffffff;fill-opacity:1"
         id="tspan5298">Rio Grande do Norte</tspan>
    </text>
    <path
       inkscape:connector-curvature="0"
       style="fill:#ffffff;fill-opacity:1"
       d="m 610.92674,597.24168 c 0,0.29308 -0.24424,0.53732 -0.53733,0.53732 l -4.29864,0 c -0.29309,0 -0.53733,-0.24424 -0.53733,-0.53732 l 0,-4.29865 c 0,-0.29308 0.24424,-0.53732 0.53733,-0.53732 l 4.29864,0 c 0.29309,0 0.53733,0.24424 0.53733,0.53732 l 0,4.29865 z"
       id="path231" />
    <path
       inkscape:connector-curvature="0"
       style="fill:#ffffff;fill-opacity:1"
       d="m 617.32585,597.24168 c 0,0.29308 -0.24424,0.53732 -0.53733,0.53732 l -4.29864,0 c -0.29309,0 -0.53733,-0.24424 -0.53733,-0.53732 l 0,-4.29865 c 0,-0.29308 0.24424,-0.53732 0.53733,-0.53732 l 4.29864,0 c 0.29309,0 0.53733,0.24424 0.53733,0.53732 l 0,4.29865 z"
       id="path233" />
    <path
       inkscape:connector-curvature="0"
       style="fill:#ffffff;fill-opacity:1"
       d="m 617.32585,610.08874 c 0,0.29309 -0.24424,0.53733 -0.53733,0.53733 l -4.29864,0 c -0.29309,0 -0.53733,-0.24424 -0.53733,-0.53733 l 0,-4.29863 c 0,-0.2931 0.24424,-0.53734 0.53733,-0.53734 l 4.29864,0 c 0.29309,0 0.53733,0.24424 0.53733,0.53734 l 0,4.29863 z"
       id="path235" />
    <path
       inkscape:connector-curvature="0"
       style="fill:#ffffff;fill-opacity:1"
       d="m 604.47878,603.64079 c 0,0.29308 -0.24424,0.53732 -0.53733,0.53732 l -4.29864,0 c -0.29309,0 -0.53733,-0.24424 -0.53733,-0.53732 l 0,-4.29865 c 0,-0.29308 0.24424,-0.53732 0.53733,-0.53732 l 4.29864,0 c 0.29309,0 0.53733,0.24424 0.53733,0.53732 l 0,4.29865 z"
       id="path237" />
    <path
       inkscape:connector-curvature="0"
       style="fill:#ffffff;fill-opacity:1"
       d="m 610.92674,603.64079 c 0,0.29308 -0.24424,0.53732 -0.53733,0.53732 l -4.29864,0 c -0.29309,0 -0.53733,-0.24424 -0.53733,-0.53732 l 0,-4.29865 c 0,-0.29308 0.24424,-0.53732 0.53733,-0.53732 l 4.29864,0 c 0.29309,0 0.53733,0.24424 0.53733,0.53732 l 0,4.29865 z"
       id="path239" />
    <path
       inkscape:connector-curvature="0"
       style="fill:#ffffff;fill-opacity:1"
       d="m 604.47878,610.08874 c 0,0.29309 -0.24424,0.53733 -0.53733,0.53733 l -4.29864,0 c -0.29309,0 -0.53733,-0.24424 -0.53733,-0.53733 l 0,-4.29863 c 0,-0.2931 0.24424,-0.53734 0.53733,-0.53734 l 4.29864,0 c 0.29309,0 0.53733,0.24424 0.53733,0.53734 l 0,4.29863 z"
       id="path241" />
    <path
       inkscape:connector-curvature="0"
       style="fill:#ffffff;fill-opacity:1"
       d="m 610.92674,610.08874 c 0,0.29309 -0.24424,0.53733 -0.53733,0.53733 l -4.29864,0 c -0.29309,0 -0.53733,-0.24424 -0.53733,-0.53733 l 0,-4.29863 c 0,-0.2931 0.24424,-0.53734 0.53733,-0.53734 l 4.29864,0 c 0.29309,0 0.53733,0.24424 0.53733,0.53734 l 0,4.29863 z"
       id="path243" />
    <path
       inkscape:connector-curvature="0"
       style="fill:#ffffff;fill-opacity:1"
       d="m 604.47878,616.5367 c 0,0.29309 -0.24424,0.53734 -0.53733,0.53734 l -4.29864,0 c -0.29309,0 -0.53733,-0.24425 -0.53733,-0.53734 l 0,-4.29863 c 0,-0.29309 0.24424,-0.53734 0.53733,-0.53734 l 4.29864,0 c 0.29309,0 0.53733,0.24425 0.53733,0.53734 l 0,4.29863 z"
       id="path245" />
    <path
       inkscape:connector-curvature="0"
       style="fill:#ffffff;fill-opacity:1"
       d="m 610.92674,616.5367 c 0,0.29309 -0.24424,0.53734 -0.53733,0.53734 l -4.29864,0 c -0.29309,0 -0.53733,-0.24425 -0.53733,-0.53734 l 0,-4.29863 c 0,-0.29309 0.24424,-0.53734 0.53733,-0.53734 l 4.29864,0 c 0.29309,0 0.53733,0.24425 0.53733,0.53734 l 0,4.29863 z"
       id="path247" />
    <path
       inkscape:connector-curvature="0"
       style="fill:#ffffff;fill-opacity:1"
       d="m 604.72302,595.04351 c 0,1.61198 -1.3189,2.93088 -2.93089,2.93088 -1.61199,0 -2.93089,-1.3189 -2.93089,-2.93088 0,-1.61199 1.3189,-2.93089 2.93089,-2.93089 1.61199,0 2.93089,1.3189 2.93089,2.93089"
       id="path249" />
  </g>
</svg>
